<svg xmlns="http://www.w3.org/2000/svg" width="113.55000000000001" height="35" viewBox="0 0 113.55000000000001 35"><rect class="svg__rect" x="0" y="0" width="54.77" height="35" fill="#4A81AF"/><rect class="svg__rect" x="52.77" y="0" width="60.78" height="35" fill="#FEFF63"/><path class="svg__text" d="M15.70 22L14.22 22L14.22 13.47L17.48 13.47Q18.91 13.47 19.75 14.21Q20.59 14.96 20.59 16.18L20.59 16.18Q20.59 17.44 19.77 18.13Q18.95 18.83 17.46 18.83L17.46 18.83L15.70 18.83L15.70 22ZM15.70 14.66L15.70 17.64L17.48 17.64Q18.27 17.64 18.69 17.27Q19.10 16.90 19.10 16.19L19.10 16.19Q19.10 15.50 18.68 15.09Q18.26 14.68 17.52 14.66L17.52 14.66L15.70 14.66ZM26.91 18.86L24.05 13.47L25.70 13.47L27.66 17.51L29.62 13.47L31.26 13.47L28.40 18.86L28.40 22L26.91 22L26.91 18.86ZM36.86 14.66L34.22 14.66L34.22 13.47L40.99 13.47L40.99 14.66L38.33 14.66L38.33 22L36.86 22L36.86 14.66Z" fill="#FEFF63"/><path class="svg__text" d="M69.34 22L66.96 22L66.96 13.60L69.34 13.60L69.34 16.76L72.58 16.76L72.58 13.60L74.95 13.60L74.95 22L72.58 22L72.58 18.72L69.34 18.72L69.34 22ZM79.68 17.80L79.68 17.80Q79.68 16.55 80.29 15.55Q80.89 14.56 81.95 14.00Q83.02 13.43 84.35 13.43L84.35 13.43Q85.68 13.43 86.74 14.00Q87.81 14.56 88.41 15.55Q89.02 16.55 89.02 17.80L89.02 17.80Q89.02 19.05 88.41 20.04Q87.81 21.04 86.75 21.60Q85.68 22.17 84.35 22.17L84.35 22.17Q83.02 22.17 81.95 21.60Q80.89 21.04 80.29 20.04Q79.68 19.05 79.68 17.80ZM82.08 17.80L82.08 17.80Q82.08 18.51 82.38 19.05Q82.68 19.60 83.20 19.90Q83.72 20.20 84.35 20.20L84.35 20.20Q84.99 20.20 85.50 19.90Q86.02 19.60 86.32 19.05Q86.62 18.51 86.62 17.80L86.62 17.80Q86.62 17.09 86.32 16.54Q86.02 16 85.50 15.70Q84.99 15.40 84.35 15.40L84.35 15.40Q83.71 15.40 83.20 15.70Q82.68 16 82.38 16.54Q82.08 17.09 82.08 17.80ZM96.08 22L93.75 22L93.75 13.60L95.70 13.60L99.41 18.07L99.41 13.60L101.74 13.60L101.74 22L99.79 22L96.08 17.52L96.08 22Z" fill="#4A81AF" x="65.77000000000001"/></svg>